TITLE ""
FILE "2Q_j_1370-1383.mp3" MP3
  TRACK 01 AUDIO
    TITLE "2Q_j_1370-1383_01"
    INDEX 01 00:00:00
  TRACK 02 AUDIO
    TITLE "2Q_j_1370-1383_02"
    INDEX 01 00:01:37
  TRACK 03 AUDIO
    TITLE "2Q_j_1370-1383_03"
    INDEX 01 00:02:07
  TRACK 04 AUDIO
    TITLE "2Q_j_1370-1383_04"
    INDEX 01 00:04:73
  TRACK 05 AUDIO
    TITLE "2Q_j_1370-1383_05"
    INDEX 01 00:05:41
  TRACK 06 AUDIO
    TITLE "2Q_j_1370-1383_06"
    INDEX 01 00:10:50
  TRACK 07 AUDIO
    TITLE "2Q_j_1370-1383_07"
    INDEX 01 00:11:26
  TRACK 08 AUDIO
    TITLE "2Q_j_1370-1383_08"
    INDEX 01 00:12:66
  TRACK 09 AUDIO
    TITLE "2Q_j_1370-1383_09"
    INDEX 01 00:13:38
  TRACK 10 AUDIO
    TITLE "2Q_j_1370-1383_10"
    INDEX 01 00:15:37
  TRACK 11 AUDIO
    TITLE "2Q_j_1370-1383_11"
    INDEX 01 00:16:05
  TRACK 12 AUDIO
    TITLE "2Q_j_1370-1383_12"
    INDEX 01 00:19:19
  TRACK 13 AUDIO
    TITLE "2Q_j_1370-1383_13"
    INDEX 01 00:20:01
  TRACK 14 AUDIO
    TITLE "2Q_j_1370-1383_14"
    INDEX 01 00:21:46
  TRACK 15 AUDIO
    TITLE "2Q_j_1370-1383_15"
    INDEX 01 00:22:16
  TRACK 16 AUDIO
    TITLE "2Q_j_1370-1383_16"
    INDEX 01 00:23:68
  TRACK 17 AUDIO
    TITLE "2Q_j_1370-1383_17"
    INDEX 01 00:24:38
  TRACK 18 AUDIO
    TITLE "2Q_j_1370-1383_18"
    INDEX 01 00:29:45
  TRACK 19 AUDIO
    TITLE "2Q_j_1370-1383_19"
    INDEX 01 00:30:19
  TRACK 20 AUDIO
    TITLE "2Q_j_1370-1383_20"
    INDEX 01 00:31:56
  TRACK 21 AUDIO
    TITLE "2Q_j_1370-1383_21"
    INDEX 01 00:32:30
  TRACK 22 AUDIO
    TITLE "2Q_j_1370-1383_22"
    INDEX 01 00:37:19
  TRACK 23 AUDIO
    TITLE "2Q_j_1370-1383_23"
    INDEX 01 00:37:64
  TRACK 24 AUDIO
    TITLE "2Q_j_1370-1383_24"
    INDEX 01 00:42:20
  TRACK 25 AUDIO
    TITLE "2Q_j_1370-1383_25"
    INDEX 01 00:42:69
  TRACK 26 AUDIO
    TITLE "2Q_j_1370-1383_26"
    INDEX 01 00:44:49
  TRACK 27 AUDIO
    TITLE "2Q_j_1370-1383_27"
    INDEX 01 00:45:21
  TRACK 28 AUDIO
    TITLE "2Q_j_1370-1383_28"
    INDEX 01 00:47:55
  TRACK 29 AUDIO
    TITLE "2Q_j_1370-1383_29"
    INDEX 01 00:48:27
  TRACK 30 AUDIO
    TITLE "2Q_j_1370-1383_30"
    INDEX 01 00:52:64
  TRACK 31 AUDIO
    TITLE "2Q_j_1370-1383_31"
    INDEX 01 00:53:36
  TRACK 32 AUDIO
    TITLE "2Q_j_1370-1383_32"
    INDEX 01 00:54:53
  TRACK 33 AUDIO
    TITLE "2Q_j_1370-1383_33"
    INDEX 01 00:55:27
  TRACK 34 AUDIO
    TITLE "2Q_j_1370-1383_34"
    INDEX 01 00:56:72
  TRACK 35 AUDIO
    TITLE "2Q_j_1370-1383_35"
    INDEX 01 00:57:42
  TRACK 36 AUDIO
    TITLE "2Q_j_1370-1383_36"
    INDEX 01 01:01:43
  TRACK 37 AUDIO
    TITLE "2Q_j_1370-1383_37"
    INDEX 01 01:02:15
  TRACK 38 AUDIO
    TITLE "2Q_j_1370-1383_38"
    INDEX 01 01:03:36
  TRACK 39 AUDIO
    TITLE "2Q_j_1370-1383_39"
    INDEX 01 01:04:08
  TRACK 40 AUDIO
    TITLE "2Q_j_1370-1383_40"
    INDEX 01 01:06:29
  TRACK 41 AUDIO
    TITLE "2Q_j_1370-1383_41"
    INDEX 01 01:06:74
  TRACK 42 AUDIO
    TITLE "2Q_j_1370-1383_42"
    INDEX 01 01:12:14
  TRACK 43 AUDIO
    TITLE "2Q_j_1370-1383_43"
    INDEX 01 01:12:65
  TRACK 44 AUDIO
    TITLE "2Q_j_1370-1383_44"
    INDEX 01 01:14:01
  TRACK 45 AUDIO
    TITLE "2Q_j_1370-1383_45"
    INDEX 01 01:14:44
  TRACK 46 AUDIO
    TITLE "2Q_j_1370-1383_46"
    INDEX 01 01:16:31
  TRACK 47 AUDIO
    TITLE "2Q_j_1370-1383_47"
    INDEX 01 01:17:01
  TRACK 48 AUDIO
    TITLE "2Q_j_1370-1383_48"
    INDEX 01 01:20:43
  TRACK 49 AUDIO
    TITLE "2Q_j_1370-1383_49"
    INDEX 01 01:21:15
  TRACK 50 AUDIO
    TITLE "2Q_j_1370-1383_50"
    INDEX 01 01:22:43
  TRACK 51 AUDIO
    TITLE "2Q_j_1370-1383_51"
    INDEX 01 01:23:16
  TRACK 52 AUDIO
    TITLE "2Q_j_1370-1383_52"
    INDEX 01 01:25:10
  TRACK 53 AUDIO
    TITLE "2Q_j_1370-1383_53"
    INDEX 01 01:25:59
  TRACK 54 AUDIO
    TITLE "2Q_j_1370-1383_54"
    INDEX 01 01:29:71
  TRACK 55 AUDIO
    TITLE "2Q_j_1370-1383_55"
    INDEX 01 01:30:43
  TRACK 56 AUDIO
    TITLE "2Q_j_1370-1383_56"
    INDEX 01 01:32:52
  TRACK 57 AUDIO
    TITLE "2Q_j_1370-1383_57"
    INDEX 01 01:33:26
  TRACK 58 AUDIO
    TITLE "2Q_j_1370-1383_58"
    INDEX 01 01:35:05
  TRACK 59 AUDIO
    TITLE "2Q_j_1370-1383_59"
    INDEX 01 01:35:50
  TRACK 60 AUDIO
    TITLE "2Q_j_1370-1383_60"
    INDEX 01 01:39:73
  TRACK 61 AUDIO
    TITLE "2Q_j_1370-1383_61"
    INDEX 01 01:40:49
  TRACK 62 AUDIO
    TITLE "2Q_j_1370-1383_62"
    INDEX 01 01:42:07
  TRACK 63 AUDIO
    TITLE "2Q_j_1370-1383_63"
    INDEX 01 01:42:52
  TRACK 64 AUDIO
    TITLE "2Q_j_1370-1383_64"
    INDEX 01 01:48:51
  TRACK 65 AUDIO
    TITLE "2Q_j_1370-1383_65"
    INDEX 01 01:49:19
  TRACK 66 AUDIO
    TITLE "2Q_j_1370-1383_66"
    INDEX 01 01:54:65
  TRACK 67 AUDIO
    TITLE "2Q_j_1370-1383_67"
    INDEX 01 01:55:37
  TRACK 68 AUDIO
    TITLE "2Q_j_1370-1383_68"
    INDEX 01 01:56:56
  TRACK 69 AUDIO
    TITLE "2Q_j_1370-1383_69"
    INDEX 01 01:57:26
  TRACK 70 AUDIO
    TITLE "2Q_j_1370-1383_70"
    INDEX 01 02:00:15
  TRACK 71 AUDIO
    TITLE "2Q_j_1370-1383_71"
    INDEX 01 02:01:04
  TRACK 72 AUDIO
    TITLE "2Q_j_1370-1383_72"
    INDEX 01 02:03:37
  TRACK 73 AUDIO
    TITLE "2Q_j_1370-1383_73"
    INDEX 01 02:04:09
  TRACK 74 AUDIO
    TITLE "2Q_j_1370-1383_74"
    INDEX 01 02:05:33
  TRACK 75 AUDIO
    TITLE "2Q_j_1370-1383_75"
    INDEX 01 02:06:06
  TRACK 76 AUDIO
    TITLE "2Q_j_1370-1383_76"
    INDEX 01 02:08:20
  TRACK 77 AUDIO
    TITLE "2Q_j_1370-1383_77"
    INDEX 01 02:08:67
  TRACK 78 AUDIO
    TITLE "2Q_j_1370-1383_78"
    INDEX 01 02:13:15
  TRACK 79 AUDIO
    TITLE "2Q_j_1370-1383_79"
    INDEX 01 02:13:64
  TRACK 80 AUDIO
    TITLE "2Q_j_1370-1383_80"
    INDEX 01 02:15:10
  TRACK 81 AUDIO
    TITLE "2Q_j_1370-1383_81"
    INDEX 01 02:15:57
  TRACK 82 AUDIO
    TITLE "2Q_j_1370-1383_82"
    INDEX 01 02:17:03
  TRACK 83 AUDIO
    TITLE "2Q_j_1370-1383_83"
    INDEX 01 02:17:46
  TRACK 84 AUDIO
    TITLE "2Q_j_1370-1383_84"
    INDEX 01 02:21:64
